<svg width="300" height="60" viewBox="0 0 300 60" fill="none" xmlns="http://www.w3.org/2000/svg">
<rect x="1" y="1" width="298" height="58" rx="29" stroke="#C4C4C4" stroke-width="2"/>
<rect x="1" y="1" width="298" height="58" rx="29" stroke="url(#paint0_linear)" stroke-width="2"/>
<path d="M238.82 37.3529C238.779 37.2751 238.74 37.2106 238.704 37.1589C238.115 36.2279 236.987 35.0851 235.323 33.7302L235.288 33.6991L235.271 33.6839L235.253 33.6683H235.235C234.48 33.0374 234.001 32.6132 233.801 32.396C233.435 31.9823 233.353 31.5635 233.553 31.1392C233.694 30.8186 234.226 30.1416 235.146 29.1072C235.63 28.559 236.014 28.1196 236.297 27.7886C238.339 25.4097 239.224 23.8896 238.952 23.2276L238.847 23.0729C238.776 22.9798 238.593 22.8946 238.298 22.8169C238.003 22.7393 237.625 22.7265 237.165 22.7782L232.067 22.8091C231.984 22.7834 231.866 22.7858 231.713 22.8169C231.559 22.848 231.482 22.8636 231.482 22.8636L231.394 22.9024L231.323 22.9491C231.264 22.9799 231.199 23.0342 231.128 23.1118C231.058 23.1891 230.999 23.2799 230.952 23.3833C230.397 24.6347 229.766 25.7982 229.057 26.8738C228.621 27.5151 228.22 28.0709 227.853 28.5415C227.488 29.012 227.181 29.3586 226.933 29.5808C226.685 29.8032 226.461 29.9814 226.26 30.116C226.06 30.2506 225.906 30.3075 225.8 30.2867C225.694 30.2659 225.594 30.2452 225.499 30.2246C225.334 30.1314 225.201 30.0048 225.101 29.8445C225 29.6842 224.933 29.4824 224.897 29.2394C224.862 28.9962 224.841 28.787 224.835 28.6111C224.83 28.4354 224.832 28.1869 224.844 27.8664C224.857 27.5456 224.862 27.3286 224.862 27.2148C224.862 26.8217 224.871 26.3951 224.888 25.9349C224.906 25.4747 224.921 25.11 224.933 24.8414C224.945 24.5725 224.95 24.2879 224.95 23.988C224.95 23.6881 224.93 23.4528 224.888 23.2821C224.848 23.1116 224.785 22.9461 224.703 22.7856C224.62 22.6253 224.499 22.5013 224.34 22.4133C224.181 22.3254 223.983 22.2556 223.747 22.2038C223.122 22.0797 222.325 22.0126 221.357 22.0022C219.162 21.9816 217.752 22.1058 217.126 22.3747C216.878 22.4883 216.654 22.6435 216.454 22.8399C216.241 23.0675 216.212 23.1918 216.365 23.2122C217.073 23.3052 217.574 23.5276 217.87 23.8792L217.976 24.0655C218.059 24.1999 218.141 24.4379 218.224 24.7791C218.306 25.1204 218.36 25.4979 218.383 25.9114C218.442 26.6665 218.442 27.3129 218.383 27.8506C218.324 28.3885 218.268 28.8073 218.215 29.1072C218.162 29.4072 218.082 29.6502 217.976 29.8363C217.87 30.0225 217.799 30.1363 217.763 30.1776C217.728 30.2189 217.698 30.2449 217.675 30.2551C217.522 30.3066 217.362 30.3329 217.197 30.3329C217.032 30.3329 216.831 30.2604 216.595 30.1155C216.359 29.9707 216.114 29.7717 215.861 29.5182C215.607 29.2648 215.321 28.9105 215.002 28.4555C214.683 28.0005 214.353 27.4627 214.011 26.8422L213.727 26.3922C213.55 26.1027 213.309 25.6811 213.002 25.1279C212.695 24.5745 212.423 24.0392 212.187 23.5221C212.093 23.3049 211.951 23.1395 211.763 23.0258L211.674 22.9791C211.615 22.9378 211.52 22.8939 211.391 22.8472C211.261 22.8005 211.125 22.7671 210.984 22.7465L206.133 22.7773C205.638 22.7773 205.301 22.8757 205.124 23.0723L205.053 23.1652C205.018 23.217 205 23.2997 205 23.4136C205 23.5273 205.035 23.667 205.106 23.8323C205.814 25.2907 206.584 26.6972 207.416 28.0521C208.248 29.4069 208.971 30.4983 209.585 31.3252C210.198 32.1527 210.824 32.9336 211.461 33.6677C212.099 34.4021 212.52 34.8727 212.727 35.0795C212.933 35.2866 213.096 35.4415 213.214 35.5449L213.656 35.9171C213.94 36.1654 214.356 36.4627 214.904 36.8091C215.453 37.1557 216.061 37.497 216.728 37.8334C217.395 38.1692 218.171 38.4433 219.056 38.6553C219.941 38.8675 220.802 38.9526 221.64 38.9115H223.676C224.089 38.8803 224.402 38.7665 224.614 38.5701L224.685 38.4924C224.732 38.4306 224.777 38.3347 224.817 38.2057C224.859 38.0764 224.879 37.934 224.879 37.7791C224.867 37.3344 224.906 36.9337 224.994 36.5769C225.083 36.2203 225.183 35.9514 225.296 35.7703C225.408 35.5893 225.535 35.4366 225.676 35.3128C225.817 35.1888 225.918 35.1136 225.977 35.0878C226.036 35.0618 226.083 35.0441 226.119 35.0335C226.402 34.9508 226.735 35.0309 227.119 35.2742C227.503 35.5172 227.862 35.8173 228.199 36.174C228.535 36.531 228.94 36.9315 229.412 37.3761C229.884 37.8209 230.297 38.1516 230.651 38.3691L231.005 38.5552C231.241 38.6794 231.548 38.7932 231.925 38.8966C232.303 39 232.633 39.0258 232.917 38.9742L237.448 38.9122C237.896 38.9122 238.245 38.8472 238.493 38.7181C238.74 38.5889 238.888 38.4465 238.935 38.2915C238.983 38.1365 238.985 37.9605 238.944 37.7638C238.902 37.5676 238.861 37.4304 238.82 37.3529Z" fill="white"/>
<path d="M238.82 37.3529C238.779 37.2751 238.74 37.2106 238.704 37.1589C238.115 36.2279 236.987 35.0851 235.323 33.7302L235.288 33.6991L235.271 33.6839L235.253 33.6683H235.235C234.48 33.0374 234.001 32.6132 233.801 32.396C233.435 31.9823 233.353 31.5635 233.553 31.1392C233.694 30.8186 234.226 30.1416 235.146 29.1072C235.63 28.559 236.014 28.1196 236.297 27.7886C238.339 25.4097 239.224 23.8896 238.952 23.2276L238.847 23.0729C238.776 22.9798 238.593 22.8946 238.298 22.8169C238.003 22.7393 237.625 22.7265 237.165 22.7782L232.067 22.8091C231.984 22.7834 231.866 22.7858 231.713 22.8169C231.559 22.848 231.482 22.8636 231.482 22.8636L231.394 22.9024L231.323 22.9491C231.264 22.9799 231.199 23.0342 231.128 23.1118C231.058 23.1891 230.999 23.2799 230.952 23.3833C230.397 24.6347 229.766 25.7982 229.057 26.8738C228.621 27.5151 228.22 28.0709 227.853 28.5415C227.488 29.012 227.181 29.3586 226.933 29.5808C226.685 29.8032 226.461 29.9814 226.26 30.116C226.06 30.2506 225.906 30.3075 225.8 30.2867C225.694 30.2659 225.594 30.2452 225.499 30.2246C225.334 30.1314 225.201 30.0048 225.101 29.8445C225 29.6842 224.933 29.4824 224.897 29.2394C224.862 28.9962 224.841 28.787 224.835 28.6111C224.83 28.4354 224.832 28.1869 224.844 27.8664C224.857 27.5456 224.862 27.3286 224.862 27.2148C224.862 26.8217 224.871 26.3951 224.888 25.9349C224.906 25.4747 224.921 25.11 224.933 24.8414C224.945 24.5725 224.95 24.2879 224.95 23.988C224.95 23.6881 224.93 23.4528 224.888 23.2821C224.848 23.1116 224.785 22.9461 224.703 22.7856C224.62 22.6253 224.499 22.5013 224.34 22.4133C224.181 22.3254 223.983 22.2556 223.747 22.2038C223.122 22.0797 222.325 22.0126 221.357 22.0022C219.162 21.9816 217.752 22.1058 217.126 22.3747C216.878 22.4883 216.654 22.6435 216.454 22.8399C216.241 23.0675 216.212 23.1918 216.365 23.2122C217.073 23.3052 217.574 23.5276 217.87 23.8792L217.976 24.0655C218.059 24.1999 218.141 24.4379 218.224 24.7791C218.306 25.1204 218.36 25.4979 218.383 25.9114C218.442 26.6665 218.442 27.3129 218.383 27.8506C218.324 28.3885 218.268 28.8073 218.215 29.1072C218.162 29.4072 218.082 29.6502 217.976 29.8363C217.87 30.0225 217.799 30.1363 217.763 30.1776C217.728 30.2189 217.698 30.2449 217.675 30.2551C217.522 30.3066 217.362 30.3329 217.197 30.3329C217.032 30.3329 216.831 30.2604 216.595 30.1155C216.359 29.9707 216.114 29.7717 215.861 29.5182C215.607 29.2648 215.321 28.9105 215.002 28.4555C214.683 28.0005 214.353 27.4627 214.011 26.8422L213.727 26.3922C213.55 26.1027 213.309 25.6811 213.002 25.1279C212.695 24.5745 212.423 24.0392 212.187 23.5221C212.093 23.3049 211.951 23.1395 211.763 23.0258L211.674 22.9791C211.615 22.9378 211.52 22.8939 211.391 22.8472C211.261 22.8005 211.125 22.7671 210.984 22.7465L206.133 22.7773C205.638 22.7773 205.301 22.8757 205.124 23.0723L205.053 23.1652C205.018 23.217 205 23.2997 205 23.4136C205 23.5273 205.035 23.667 205.106 23.8323C205.814 25.2907 206.584 26.6972 207.416 28.0521C208.248 29.4069 208.971 30.4983 209.585 31.3252C210.198 32.1527 210.824 32.9336 211.461 33.6677C212.099 34.4021 212.52 34.8727 212.727 35.0795C212.933 35.2866 213.096 35.4415 213.214 35.5449L213.656 35.9171C213.94 36.1654 214.356 36.4627 214.904 36.8091C215.453 37.1557 216.061 37.497 216.728 37.8334C217.395 38.1692 218.171 38.4433 219.056 38.6553C219.941 38.8675 220.802 38.9526 221.64 38.9115H223.676C224.089 38.8803 224.402 38.7665 224.614 38.5701L224.685 38.4924C224.732 38.4306 224.777 38.3347 224.817 38.2057C224.859 38.0764 224.879 37.934 224.879 37.7791C224.867 37.3344 224.906 36.9337 224.994 36.5769C225.083 36.2203 225.183 35.9514 225.296 35.7703C225.408 35.5893 225.535 35.4366 225.676 35.3128C225.817 35.1888 225.918 35.1136 225.977 35.0878C226.036 35.0618 226.083 35.0441 226.119 35.0335C226.402 34.9508 226.735 35.0309 227.119 35.2742C227.503 35.5172 227.862 35.8173 228.199 36.174C228.535 36.531 228.94 36.9315 229.412 37.3761C229.884 37.8209 230.297 38.1516 230.651 38.3691L231.005 38.5552C231.241 38.6794 231.548 38.7932 231.925 38.8966C232.303 39 232.633 39.0258 232.917 38.9742L237.448 38.9122C237.896 38.9122 238.245 38.8472 238.493 38.7181C238.74 38.5889 238.888 38.4465 238.935 38.2915C238.983 38.1365 238.985 37.9605 238.944 37.7638C238.902 37.5676 238.861 37.4304 238.82 37.3529Z" fill="url(#paint1_linear)"/>
<path d="M74.5098 37H72.625V24.3242H65.6133V37H63.7383V22.7812H74.5098V37ZM88.8652 30.3496C88.8652 31.7428 88.6309 32.9603 88.1621 34.002C87.6934 35.0371 87.0293 35.8281 86.1699 36.375C85.3105 36.9219 84.3079 37.1953 83.1621 37.1953C82.0423 37.1953 81.0495 36.9219 80.1836 36.375C79.3177 35.8216 78.6439 35.0371 78.1621 34.0215C77.6868 32.9993 77.4427 31.8177 77.4297 30.4766V29.4512C77.4297 28.084 77.6673 26.8763 78.1426 25.8281C78.6178 24.7799 79.2884 23.9792 80.1543 23.4258C81.0267 22.8659 82.0228 22.5859 83.1426 22.5859C84.2819 22.5859 85.2845 22.8626 86.1504 23.416C87.0228 23.9629 87.6934 24.7604 88.1621 25.8086C88.6309 26.8503 88.8652 28.0645 88.8652 29.4512V30.3496ZM87 29.4316C87 27.7454 86.6615 26.4531 85.9844 25.5547C85.3073 24.6497 84.36 24.1973 83.1426 24.1973C81.9577 24.1973 81.0234 24.6497 80.3398 25.5547C79.6628 26.4531 79.3145 27.7031 79.2949 29.3047V30.3496C79.2949 31.9837 79.6367 33.2695 80.3203 34.207C81.0104 35.138 81.9577 35.6035 83.1621 35.6035C84.373 35.6035 85.3105 35.1641 85.9746 34.2852C86.6387 33.3997 86.9805 32.1335 87 30.4863V29.4316ZM104.139 40.4863H102.273V37H92.0684V40.4961H90.1934L90.1836 35.4668H91.3457C91.9577 34.7767 92.4427 33.8522 92.8008 32.6934C93.1654 31.528 93.3932 30.252 93.4844 28.8652L93.7969 22.7812H102.303V35.4668H104.158L104.139 40.4863ZM93.4844 35.4668H100.418V24.3242H95.6035L95.3984 28.5039C95.3138 30.138 95.0957 31.5312 94.7441 32.6836C94.3991 33.8359 93.9792 34.7637 93.4844 35.4668ZM114.422 30.4277H108.26V35.4668H115.418V37H106.385V22.7812H115.32V24.3242H108.26V28.8945H114.422V30.4277ZM128.504 22.7812V37H126.629V24.3242H121.531L121.277 29.959C121.18 31.847 120.984 33.2663 120.691 34.2168C120.405 35.1673 119.982 35.8672 119.422 36.3164C118.862 36.7591 118.113 36.987 117.176 37H116.561V35.4668L116.951 35.4473C117.557 35.4017 118.022 35.2064 118.348 34.8613C118.673 34.5098 118.921 33.9531 119.09 33.1914C119.259 32.4297 119.38 31.2578 119.451 29.6758L119.744 22.7812H128.504ZM140.877 22.7812H142.752V37H140.877V26.043L133.875 37H131.99V22.7812H133.875V33.7383L140.877 22.7812ZM155.701 24.3242H151.131V37H149.266V24.3242H144.705V22.7812H155.701V24.3242ZM159.783 28.582H163.318C164.803 28.6016 165.962 28.9824 166.795 29.7246C167.628 30.4668 168.045 31.4759 168.045 32.752C168.045 34.0345 167.625 35.0566 166.785 35.8184C165.945 36.5801 164.799 36.974 163.348 37H157.908V22.7812H159.783V28.582ZM159.783 30.125V35.4668H163.211C164.142 35.4668 164.865 35.2194 165.379 34.7246C165.9 34.2298 166.16 33.5658 166.16 32.7324C166.16 31.9316 165.91 31.3001 165.408 30.8379C164.913 30.3757 164.207 30.138 163.289 30.125H159.783ZM180.984 32.4883C180.809 33.9922 180.252 35.1543 179.314 35.9746C178.383 36.7884 177.143 37.1953 175.594 37.1953C173.914 37.1953 172.566 36.5931 171.551 35.3887C170.542 34.1842 170.037 32.5729 170.037 30.5547V29.1875C170.037 27.8659 170.271 26.7038 170.74 25.7012C171.215 24.6986 171.886 23.9303 172.752 23.3965C173.618 22.8561 174.62 22.5859 175.76 22.5859C177.27 22.5859 178.481 23.0091 179.393 23.8555C180.304 24.6953 180.835 25.8607 180.984 27.3516H179.1C178.937 26.2188 178.582 25.3984 178.035 24.8906C177.495 24.3828 176.736 24.1289 175.76 24.1289C174.562 24.1289 173.621 24.5716 172.938 25.457C172.26 26.3424 171.922 27.6022 171.922 29.2363V30.6133C171.922 32.1562 172.244 33.3835 172.889 34.2949C173.533 35.2064 174.435 35.6621 175.594 35.6621C176.635 35.6621 177.433 35.4277 177.986 34.959C178.546 34.4837 178.917 33.6602 179.1 32.4883H180.984ZM190.994 37V31.4629H187.713L184.773 37H182.771L186.072 30.9453C184.236 30.2227 183.318 28.9303 183.318 27.0684C183.318 25.7142 183.761 24.6628 184.646 23.9141C185.538 23.1589 186.775 22.7812 188.357 22.7812H192.879V37H190.994ZM185.193 27.0684C185.193 27.9277 185.46 28.6178 185.994 29.1387C186.535 29.6595 187.283 29.9232 188.24 29.9297H190.994V24.3242H188.328C187.312 24.3242 186.535 24.5651 185.994 25.0469C185.46 25.5286 185.193 26.2025 185.193 27.0684Z" fill="#EB7F37"/>
<defs>
<linearGradient id="paint0_linear" x1="69" y1="60" x2="300" y2="12" gradientUnits="userSpaceOnUse">
<stop stop-color="#EB7F37"/>
<stop offset="1" stop-color="#FFA63F"/>
</linearGradient>
<linearGradient id="paint1_linear" x1="212.82" y1="39" x2="239.943" y2="36.7456" gradientUnits="userSpaceOnUse">
<stop stop-color="#EB7F37"/>
<stop offset="1" stop-color="#FFA63F"/>
</linearGradient>
</defs>
</svg>
